<svg xmlns="http://www.w3.org/2000/svg" width="1100" height="410" viewBox="0 0 1100 410">
<rect width="100%" height="100%" fill="#ffffff"/>
<text x="24" y="34" font-family="Arial" font-size="22" font-weight="700" fill="#1f2933">Final Model Comparison: Macro-F1</text>
<text x="24" y="75" font-family="Arial" font-size="13" fill="#25313b">Dummy majority</text>
<rect x="300" y="58" width="0.00" height="22" rx="3" fill="#8fb7aa"/>
<text x="308.0" y="74" font-family="Arial" font-size="13" fill="#25313b">0.000</text>
<text x="24" y="109" font-family="Arial" font-size="13" fill="#25313b">TF-IDF Naive Bayes</text>
<rect x="300" y="92" width="131.84" height="22" rx="3" fill="#8fb7aa"/>
<text x="439.8441125500419" y="108" font-family="Arial" font-size="13" fill="#25313b">0.083</text>
<text x="24" y="143" font-family="Arial" font-size="13" fill="#25313b">Lexicon</text>
<rect x="300" y="126" width="376.07" height="22" rx="3" fill="#8fb7aa"/>
<text x="684.0733060291718" y="142" font-family="Arial" font-size="13" fill="#25313b">0.238</text>
<text x="24" y="177" font-family="Arial" font-size="13" fill="#25313b">TF-IDF SVM</text>
<rect x="300" y="160" width="471.62" height="22" rx="3" fill="#8fb7aa"/>
<text x="779.6150073695669" y="176" font-family="Arial" font-size="13" fill="#25313b">0.299</text>
<text x="24" y="211" font-family="Arial" font-size="13" fill="#25313b">TF-IDF Logistic Regression</text>
<rect x="300" y="194" width="541.94" height="22" rx="3" fill="#8fb7aa"/>
<text x="849.9402794404651" y="210" font-family="Arial" font-size="13" fill="#25313b">0.343</text>
<text x="24" y="245" font-family="Arial" font-size="13" fill="#25313b">DistilBERT</text>
<rect x="300" y="228" width="638.72" height="22" rx="3" fill="#8fb7aa"/>
<text x="946.7161133755454" y="244" font-family="Arial" font-size="13" fill="#25313b">0.404</text>
<text x="24" y="279" font-family="Arial" font-size="13" fill="#25313b">RoBERTa</text>
<rect x="300" y="262" width="683.20" height="22" rx="3" fill="#2f6f5e"/>
<text x="991.2042560649982" y="278" font-family="Arial" font-size="13" fill="#25313b">0.433</text>
<text x="24" y="313" font-family="Arial" font-size="13" fill="#25313b">RoBERTa + Weighted Focal Loss</text>
<rect x="300" y="296" width="691.93" height="22" rx="3" fill="#b87935"/>
<text x="999.9304974653464" y="312" font-family="Arial" font-size="13" fill="#25313b">0.438</text>
<text x="24" y="347" font-family="Arial" font-size="13" fill="#25313b">RoBERTa + Class-Balanced Focal Loss</text>
<rect x="300" y="330" width="720.00" height="22" rx="3" fill="#7655a6"/>
<text x="1028.0" y="346" font-family="Arial" font-size="13" fill="#25313b">0.456</text>
</svg>