<svg xmlns="http://www.w3.org/2000/svg" width="1100" height="410" viewBox="0 0 1100 410">
<rect width="100%" height="100%" fill="#ffffff"/>
<text x="24" y="34" font-family="Arial" font-size="22" font-weight="700" fill="#1f2933">Final Model Comparison: Micro-F1</text>
<text x="24" y="75" font-family="Arial" font-size="13" fill="#25313b">Dummy majority</text>
<rect x="300" y="58" width="0.00" height="22" rx="3" fill="#8fb7aa"/>
<text x="308.0" y="74" font-family="Arial" font-size="13" fill="#25313b">0.000</text>
<text x="24" y="109" font-family="Arial" font-size="13" fill="#25313b">TF-IDF Naive Bayes</text>
<rect x="300" y="92" width="188.67" height="22" rx="3" fill="#8fb7aa"/>
<text x="496.673835125448" y="108" font-family="Arial" font-size="13" fill="#25313b">0.129</text>
<text x="24" y="143" font-family="Arial" font-size="13" fill="#25313b">Lexicon</text>
<rect x="300" y="126" width="432.78" height="22" rx="3" fill="#8fb7aa"/>
<text x="740.7826450000131" y="142" font-family="Arial" font-size="13" fill="#25313b">0.297</text>
<text x="24" y="177" font-family="Arial" font-size="13" fill="#25313b">TF-IDF SVM</text>
<rect x="300" y="160" width="506.57" height="22" rx="3" fill="#8fb7aa"/>
<text x="814.5691900979434" y="176" font-family="Arial" font-size="13" fill="#25313b">0.347</text>
<text x="24" y="211" font-family="Arial" font-size="13" fill="#25313b">TF-IDF Logistic Regression</text>
<rect x="300" y="194" width="543.77" height="22" rx="3" fill="#8fb7aa"/>
<text x="851.7731154642966" y="210" font-family="Arial" font-size="13" fill="#25313b">0.373</text>
<text x="24" y="245" font-family="Arial" font-size="13" fill="#25313b">DistilBERT</text>
<rect x="300" y="228" width="683.20" height="22" rx="3" fill="#8fb7aa"/>
<text x="991.2015164809598" y="244" font-family="Arial" font-size="13" fill="#25313b">0.469</text>
<text x="24" y="279" font-family="Arial" font-size="13" fill="#25313b">RoBERTa + Class-Balanced Focal Loss</text>
<rect x="300" y="262" width="684.34" height="22" rx="3" fill="#7655a6"/>
<text x="992.3356973054765" y="278" font-family="Arial" font-size="13" fill="#25313b">0.469</text>
<text x="24" y="313" font-family="Arial" font-size="13" fill="#25313b">RoBERTa + Weighted Focal Loss</text>
<rect x="300" y="296" width="699.33" height="22" rx="3" fill="#b87935"/>
<text x="1007.3340201460298" y="312" font-family="Arial" font-size="13" fill="#25313b">0.480</text>
<text x="24" y="347" font-family="Arial" font-size="13" fill="#25313b">RoBERTa</text>
<rect x="300" y="330" width="720.00" height="22" rx="3" fill="#2f6f5e"/>
<text x="1028.0" y="346" font-family="Arial" font-size="13" fill="#25313b">0.494</text>
</svg>