<svg xmlns="http://www.w3.org/2000/svg" width="1100" height="410" viewBox="0 0 1100 410">
<rect width="100%" height="100%" fill="#ffffff"/>
<text x="24" y="34" font-family="Arial" font-size="22" font-weight="700" fill="#1f2933">Final Model Comparison: Latency</text>
<text x="24" y="75" font-family="Arial" font-size="13" fill="#25313b">Dummy majority</text>
<rect x="300" y="58" width="0.01" height="22" rx="3" fill="#8fb7aa"/>
<text x="308.0100404315279" y="74" font-family="Arial" font-size="13" fill="#25313b">0.000</text>
<text x="24" y="109" font-family="Arial" font-size="13" fill="#25313b">TF-IDF Logistic Regression</text>
<rect x="300" y="92" width="1.04" height="22" rx="3" fill="#8fb7aa"/>
<text x="309.03512250781597" y="108" font-family="Arial" font-size="13" fill="#25313b">0.014</text>
<text x="24" y="143" font-family="Arial" font-size="13" fill="#25313b">TF-IDF SVM</text>
<rect x="300" y="126" width="1.07" height="22" rx="3" fill="#8fb7aa"/>
<text x="309.06855322715285" y="142" font-family="Arial" font-size="13" fill="#25313b">0.014</text>
<text x="24" y="177" font-family="Arial" font-size="13" fill="#25313b">TF-IDF Naive Bayes</text>
<rect x="300" y="160" width="1.36" height="22" rx="3" fill="#8fb7aa"/>
<text x="309.3610411858551" y="176" font-family="Arial" font-size="13" fill="#25313b">0.018</text>
<text x="24" y="211" font-family="Arial" font-size="13" fill="#25313b">Lexicon</text>
<rect x="300" y="194" width="2.09" height="22" rx="3" fill="#8fb7aa"/>
<text x="310.0889941807786" y="210" font-family="Arial" font-size="13" fill="#25313b">0.028</text>
<text x="24" y="245" font-family="Arial" font-size="13" fill="#25313b">DistilBERT</text>
<rect x="300" y="228" width="410.75" height="22" rx="3" fill="#8fb7aa"/>
<text x="718.7540290534901" y="244" font-family="Arial" font-size="13" fill="#25313b">5.486</text>
<text x="24" y="279" font-family="Arial" font-size="13" fill="#25313b">RoBERTa + Weighted Focal Loss</text>
<rect x="300" y="262" width="716.96" height="22" rx="3" fill="#b87935"/>
<text x="1024.9616320934608" y="278" font-family="Arial" font-size="13" fill="#25313b">9.576</text>
<text x="24" y="313" font-family="Arial" font-size="13" fill="#25313b">RoBERTa</text>
<rect x="300" y="296" width="719.25" height="22" rx="3" fill="#2f6f5e"/>
<text x="1027.2531993650941" y="312" font-family="Arial" font-size="13" fill="#25313b">9.607</text>
<text x="24" y="347" font-family="Arial" font-size="13" fill="#25313b">RoBERTa + Class-Balanced Focal Loss</text>
<rect x="300" y="330" width="720.00" height="22" rx="3" fill="#7655a6"/>
<text x="1028.0" y="346" font-family="Arial" font-size="13" fill="#25313b">9.616</text>
</svg>