<svg xmlns="http://www.w3.org/2000/svg" width="980" height="300" viewBox="0 0 980 300">
<rect width="100%" height="100%" fill="#fbfaf7"/>
<text x="24" y="34" font-family="Arial" font-size="22" font-weight="700" fill="#24312e">Micro-F1 95% Confidence Intervals</text>
<line x1="352.9" y1="48" x2="352.9" y2="254" stroke="#e4dfd4" stroke-width="1"/>
<text x="340.9" y="280" font-family="Arial" font-size="12" fill="#6f746f">0.40</text>
<line x1="585.0" y1="48" x2="585.0" y2="254" stroke="#e4dfd4" stroke-width="1"/>
<text x="573.0" y="280" font-family="Arial" font-size="12" fill="#6f746f">0.45</text>
<line x1="817.1" y1="48" x2="817.1" y2="254" stroke="#e4dfd4" stroke-width="1"/>
<text x="805.1" y="280" font-family="Arial" font-size="12" fill="#6f746f">0.50</text>
<text x="24" y="63" font-family="Arial" font-size="13" fill="#39423f">RoBERTa</text>
<line x1="753.4" y1="58.0" x2="821.7" y2="58.0" stroke="#446f64" stroke-width="4"/>
<circle cx="788.5" cy="58.0" r="7" fill="#d6a35d" stroke="#24312e" stroke-width="1"/>
<text x="800.5" y="62.0" font-family="Arial" font-size="12" fill="#39423f">0.494</text>
<text x="24" y="107" font-family="Arial" font-size="13" fill="#39423f">RoBERTa + weighted focal loss</text>
<line x1="691.1" y1="102.0" x2="751.6" y2="102.0" stroke="#446f64" stroke-width="4"/>
<circle cx="722.7" cy="102.0" r="7" fill="#d6a35d" stroke="#24312e" stroke-width="1"/>
<text x="734.7" y="106.0" font-family="Arial" font-size="12" fill="#39423f">0.480</text>
<text x="24" y="151" font-family="Arial" font-size="13" fill="#39423f">RoBERTa + class-balanced focal loss</text>
<line x1="638.5" y1="146.0" x2="704.7" y2="146.0" stroke="#446f64" stroke-width="4"/>
<circle cx="674.9" cy="146.0" r="7" fill="#d6a35d" stroke="#24312e" stroke-width="1"/>
<text x="686.9" y="150.0" font-family="Arial" font-size="12" fill="#39423f">0.469</text>
<text x="24" y="195" font-family="Arial" font-size="13" fill="#39423f">DistilBERT</text>
<line x1="637.6" y1="190.0" x2="703.6" y2="190.0" stroke="#446f64" stroke-width="4"/>
<circle cx="671.3" cy="190.0" r="7" fill="#d6a35d" stroke="#24312e" stroke-width="1"/>
<text x="683.3" y="194.0" font-family="Arial" font-size="12" fill="#39423f">0.469</text>
</svg>