<svg xmlns="http://www.w3.org/2000/svg" width="980" height="408" viewBox="0 0 980 408">
<rect width="100%" height="100%" fill="#fbfaf7"/>
<text x="24" y="34" font-family="Arial" font-size="22" font-weight="700" fill="#24312e">Micro-F1 by Method</text>
<text x="24" y="76" font-family="Arial" font-size="13" fill="#39423f">Dummy majority</text>
<rect x="260" y="58" width="0.00" height="22" rx="4" fill="#7aa899"/>
<text x="268.0" y="74" font-family="Arial" font-size="13" fill="#39423f">0.000</text>
<text x="24" y="110" font-family="Arial" font-size="13" fill="#39423f">TF-IDF Naive Bayes</text>
<rect x="260" y="92" width="165.09" height="22" rx="4" fill="#7aa899"/>
<text x="433.089605734767" y="108" font-family="Arial" font-size="13" fill="#39423f">0.129</text>
<text x="24" y="144" font-family="Arial" font-size="13" fill="#39423f">Lexicon baseline</text>
<rect x="260" y="126" width="378.68" height="22" rx="4" fill="#7aa899"/>
<text x="646.6848143750115" y="142" font-family="Arial" font-size="13" fill="#39423f">0.297</text>
<text x="24" y="178" font-family="Arial" font-size="13" fill="#39423f">TF-IDF SVM</text>
<rect x="260" y="160" width="443.25" height="22" rx="4" fill="#7aa899"/>
<text x="711.2480413357005" y="176" font-family="Arial" font-size="13" fill="#39423f">0.347</text>
<text x="24" y="212" font-family="Arial" font-size="13" fill="#39423f">TF-IDF Logistic Regression</text>
<rect x="260" y="194" width="475.80" height="22" rx="4" fill="#7aa899"/>
<text x="743.8014760312595" y="210" font-family="Arial" font-size="13" fill="#39423f">0.373</text>
<text x="24" y="246" font-family="Arial" font-size="13" fill="#39423f">DistilBERT</text>
<rect x="260" y="228" width="597.80" height="22" rx="4" fill="#7aa899"/>
<text x="865.8013269208398" y="244" font-family="Arial" font-size="13" fill="#39423f">0.469</text>
<text x="24" y="280" font-family="Arial" font-size="13" fill="#39423f">RoBERTa + class-balanced focal loss</text>
<rect x="260" y="262" width="598.79" height="22" rx="4" fill="#7aa899"/>
<text x="866.793735142292" y="278" font-family="Arial" font-size="13" fill="#39423f">0.469</text>
<text x="24" y="314" font-family="Arial" font-size="13" fill="#39423f">RoBERTa + weighted focal loss</text>
<rect x="260" y="296" width="611.92" height="22" rx="4" fill="#7aa899"/>
<text x="879.9172676277761" y="312" font-family="Arial" font-size="13" fill="#39423f">0.480</text>
<text x="24" y="348" font-family="Arial" font-size="13" fill="#39423f">RoBERTa</text>
<rect x="260" y="330" width="630.00" height="22" rx="4" fill="#3f7f6c"/>
<text x="898.0" y="346" font-family="Arial" font-size="13" fill="#39423f">0.494</text>
</svg>