<svg xmlns="http://www.w3.org/2000/svg" width="980" height="408" viewBox="0 0 980 408">
<rect width="100%" height="100%" fill="#fbfaf7"/>
<text x="24" y="34" font-family="Arial" font-size="22" font-weight="700" fill="#24312e">Latency per Sample by Method</text>
<text x="24" y="76" font-family="Arial" font-size="13" fill="#39423f">Dummy majority</text>
<rect x="260" y="58" width="0.01" height="22" rx="4" fill="#7aa899"/>
<text x="268.00878537758695" y="74" font-family="Arial" font-size="13" fill="#39423f">0.000</text>
<text x="24" y="110" font-family="Arial" font-size="13" fill="#39423f">TF-IDF Logistic Regression</text>
<rect x="260" y="92" width="0.91" height="22" rx="4" fill="#7aa899"/>
<text x="268.90573219433895" y="108" font-family="Arial" font-size="13" fill="#39423f">0.014</text>
<text x="24" y="144" font-family="Arial" font-size="13" fill="#39423f">TF-IDF SVM</text>
<rect x="260" y="126" width="0.93" height="22" rx="4" fill="#7aa899"/>
<text x="268.93498407375876" y="142" font-family="Arial" font-size="13" fill="#39423f">0.014</text>
<text x="24" y="178" font-family="Arial" font-size="13" fill="#39423f">TF-IDF Naive Bayes</text>
<rect x="260" y="160" width="1.19" height="22" rx="4" fill="#7aa899"/>
<text x="269.19091103762315" y="176" font-family="Arial" font-size="13" fill="#39423f">0.018</text>
<text x="24" y="212" font-family="Arial" font-size="13" fill="#39423f">Lexicon baseline</text>
<rect x="260" y="194" width="1.83" height="22" rx="4" fill="#7aa899"/>
<text x="269.8278699081813" y="210" font-family="Arial" font-size="13" fill="#39423f">0.028</text>
<text x="24" y="246" font-family="Arial" font-size="13" fill="#39423f">DistilBERT</text>
<rect x="260" y="228" width="359.41" height="22" rx="4" fill="#7aa899"/>
<text x="627.4097754218038" y="244" font-family="Arial" font-size="13" fill="#39423f">5.486</text>
<text x="24" y="280" font-family="Arial" font-size="13" fill="#39423f">RoBERTa + weighted focal loss</text>
<rect x="260" y="262" width="627.34" height="22" rx="4" fill="#7aa899"/>
<text x="895.3414280817782" y="278" font-family="Arial" font-size="13" fill="#39423f">9.576</text>
<text x="24" y="314" font-family="Arial" font-size="13" fill="#39423f">RoBERTa</text>
<rect x="260" y="296" width="629.35" height="22" rx="4" fill="#3f7f6c"/>
<text x="897.3465494444574" y="312" font-family="Arial" font-size="13" fill="#39423f">9.607</text>
<text x="24" y="348" font-family="Arial" font-size="13" fill="#39423f">RoBERTa + class-balanced focal loss</text>
<rect x="260" y="330" width="630.00" height="22" rx="4" fill="#7aa899"/>
<text x="898.0" y="346" font-family="Arial" font-size="13" fill="#39423f">9.616</text>
</svg>