<svg xmlns="http://www.w3.org/2000/svg" width="1080" height="460" viewBox="0 0 1080 460">
<rect width="100%" height="100%" fill="#fbfaf7"/>
<text x="24" y="34" font-family="Arial" font-size="22" font-weight="700" fill="#24312e">Rare Emotion F1 Comparison</text>
<line x1="90" y1="382.0" x2="1040" y2="382.0" stroke="#e4dfd4" stroke-width="1"/>
<text x="34" y="386.0" font-family="Arial" font-size="12" fill="#6f746f">0.00</text>
<line x1="90" y1="301.0" x2="1040" y2="301.0" stroke="#e4dfd4" stroke-width="1"/>
<text x="34" y="305.0" font-family="Arial" font-size="12" fill="#6f746f">0.25</text>
<line x1="90" y1="220.0" x2="1040" y2="220.0" stroke="#e4dfd4" stroke-width="1"/>
<text x="34" y="224.0" font-family="Arial" font-size="12" fill="#6f746f">0.50</text>
<line x1="90" y1="139.0" x2="1040" y2="139.0" stroke="#e4dfd4" stroke-width="1"/>
<text x="34" y="143.0" font-family="Arial" font-size="12" fill="#6f746f">0.75</text>
<rect x="120.0" y="358.9" width="30" height="23.1" rx="4" fill="#446f64"/>
<text x="118.0" y="353.9" font-family="Arial" font-size="10" fill="#39423f">0.07</text>
<rect x="158.0" y="286.7" width="30" height="95.3" rx="4" fill="#d6a35d"/>
<text x="156.0" y="281.7" font-family="Arial" font-size="10" fill="#39423f">0.29</text>
<rect x="196.0" y="209.9" width="30" height="172.1" rx="4" fill="#9c6f9f"/>
<text x="194.0" y="204.9" font-family="Arial" font-size="10" fill="#39423f">0.53</text>
<text x="112.0" y="414" font-family="Arial" font-size="13" fill="#39423f">grief</text>
<rect x="309.2" y="286.4" width="30" height="95.6" rx="4" fill="#446f64"/>
<text x="307.2" y="281.4" font-family="Arial" font-size="10" fill="#39423f">0.30</text>
<rect x="347.2" y="293.0" width="30" height="89.0" rx="4" fill="#d6a35d"/>
<text x="345.2" y="288.0" font-family="Arial" font-size="10" fill="#39423f">0.27</text>
<rect x="385.2" y="251.3" width="30" height="130.7" rx="4" fill="#9c6f9f"/>
<text x="383.2" y="246.3" font-family="Arial" font-size="10" fill="#39423f">0.40</text>
<text x="301.2" y="414" font-family="Arial" font-size="13" fill="#39423f">pride</text>
<rect x="498.4" y="343.4" width="30" height="38.6" rx="4" fill="#446f64"/>
<text x="496.4" y="338.4" font-family="Arial" font-size="10" fill="#39423f">0.12</text>
<rect x="536.4" y="315.4" width="30" height="66.6" rx="4" fill="#d6a35d"/>
<text x="534.4" y="310.4" font-family="Arial" font-size="10" fill="#39423f">0.21</text>
<rect x="574.4" y="269.6" width="30" height="112.4" rx="4" fill="#9c6f9f"/>
<text x="572.4" y="264.6" font-family="Arial" font-size="10" fill="#39423f">0.35</text>
<text x="490.4" y="414" font-family="Arial" font-size="13" fill="#39423f">relief</text>
<rect x="687.6" y="306.0" width="30" height="76.0" rx="4" fill="#446f64"/>
<text x="685.6" y="301.0" font-family="Arial" font-size="10" fill="#39423f">0.23</text>
<rect x="725.6" y="289.0" width="30" height="93.0" rx="4" fill="#d6a35d"/>
<text x="723.6" y="284.0" font-family="Arial" font-size="10" fill="#39423f">0.29</text>
<rect x="763.6" y="300.5" width="30" height="81.5" rx="4" fill="#9c6f9f"/>
<text x="761.6" y="295.5" font-family="Arial" font-size="10" fill="#39423f">0.25</text>
<text x="679.6" y="414" font-family="Arial" font-size="13" fill="#39423f">nervousness</text>
<rect x="876.8" y="287.2" width="30" height="94.8" rx="4" fill="#446f64"/>
<text x="874.8" y="282.2" font-family="Arial" font-size="10" fill="#39423f">0.29</text>
<rect x="914.8" y="281.0" width="30" height="101.0" rx="4" fill="#d6a35d"/>
<text x="912.8" y="276.0" font-family="Arial" font-size="10" fill="#39423f">0.31</text>
<rect x="952.8" y="280.3" width="30" height="101.7" rx="4" fill="#9c6f9f"/>
<text x="950.8" y="275.3" font-family="Arial" font-size="10" fill="#39423f">0.31</text>
<text x="868.8" y="414" font-family="Arial" font-size="13" fill="#39423f">embarrassment</text>
<rect x="690" y="18" width="12" height="12" fill="#446f64"/>
<text x="708" y="29" font-family="Arial" font-size="12" fill="#39423f">RoBERTa</text>
<rect x="690" y="38" width="12" height="12" fill="#d6a35d"/>
<text x="708" y="49" font-family="Arial" font-size="12" fill="#39423f">RoBERTa + weighted focal loss</text>
<rect x="690" y="58" width="12" height="12" fill="#9c6f9f"/>
<text x="708" y="69" font-family="Arial" font-size="12" fill="#39423f">RoBERTa + class-balanced focal loss</text>
</svg>