<svg xmlns="http://www.w3.org/2000/svg" width="900" height="402" viewBox="0 0 900 402">
<rect width="100%" height="100%" fill="#fbfaf7"/>
<text x="190" y="30" font-family="Arial" font-size="20" font-weight="700" fill="#24312e">Macro-F1 by Method</text>
<text x="20" y="76" font-family="Arial" font-size="13" fill="#39423f">dummy_majority</text>
<rect x="190" y="56" width="0.00" height="22" rx="4" fill="#5b927f"/>
<text x="198.0" y="72" font-family="Arial" font-size="13" fill="#39423f">0.000</text>
<text x="20" y="110" font-family="Arial" font-size="13" fill="#39423f">tfidf_nb</text>
<rect x="190" y="90" width="122.69" height="22" rx="4" fill="#5b927f"/>
<text x="320.68827140073347" y="106" font-family="Arial" font-size="13" fill="#39423f">0.083</text>
<text x="20" y="144" font-family="Arial" font-size="13" fill="#39423f">lexicon</text>
<rect x="190" y="124" width="349.96" height="22" rx="4" fill="#5b927f"/>
<text x="547.9571042215905" y="140" font-family="Arial" font-size="13" fill="#39423f">0.238</text>
<text x="20" y="178" font-family="Arial" font-size="13" fill="#39423f">tfidf_svm</text>
<rect x="190" y="158" width="438.86" height="22" rx="4" fill="#5b927f"/>
<text x="636.8639651911249" y="174" font-family="Arial" font-size="13" fill="#39423f">0.299</text>
<text x="20" y="212" font-family="Arial" font-size="13" fill="#39423f">tfidf_logreg</text>
<rect x="190" y="192" width="504.31" height="22" rx="4" fill="#5b927f"/>
<text x="702.3055378126552" y="208" font-family="Arial" font-size="13" fill="#39423f">0.343</text>
<text x="20" y="246" font-family="Arial" font-size="13" fill="#39423f">trained_distilbert</text>
<rect x="190" y="226" width="594.36" height="22" rx="4" fill="#5b927f"/>
<text x="792.3608277244658" y="242" font-family="Arial" font-size="13" fill="#39423f">0.404</text>
<text x="20" y="280" font-family="Arial" font-size="13" fill="#39423f">trained_roberta</text>
<rect x="190" y="260" width="635.76" height="22" rx="4" fill="#5b927f"/>
<text x="833.7595160604845" y="276" font-family="Arial" font-size="13" fill="#39423f">0.433</text>
<text x="20" y="314" font-family="Arial" font-size="13" fill="#39423f">roberta_weighted_focal</text>
<rect x="190" y="294" width="643.88" height="22" rx="4" fill="#5b927f"/>
<text x="841.8797684746975" y="310" font-family="Arial" font-size="13" fill="#39423f">0.438</text>
<text x="20" y="348" font-family="Arial" font-size="13" fill="#39423f">roberta_class_balanced_focal</text>
<rect x="190" y="328" width="670.00" height="22" rx="4" fill="#5b927f"/>
<text x="868.0" y="344" font-family="Arial" font-size="13" fill="#39423f">0.456</text>
</svg>