<svg xmlns="http://www.w3.org/2000/svg" width="900" height="402" viewBox="0 0 900 402">
<rect width="100%" height="100%" fill="#fbfaf7"/>
<text x="190" y="30" font-family="Arial" font-size="20" font-weight="700" fill="#24312e">Micro-F1 by Method</text>
<text x="20" y="76" font-family="Arial" font-size="13" fill="#39423f">dummy_majority</text>
<rect x="190" y="56" width="0.00" height="22" rx="4" fill="#5b927f"/>
<text x="198.0" y="72" font-family="Arial" font-size="13" fill="#39423f">0.000</text>
<text x="20" y="110" font-family="Arial" font-size="13" fill="#39423f">tfidf_nb</text>
<rect x="190" y="90" width="175.57" height="22" rx="4" fill="#5b927f"/>
<text x="373.57148546395854" y="106" font-family="Arial" font-size="13" fill="#39423f">0.129</text>
<text x="20" y="144" font-family="Arial" font-size="13" fill="#39423f">lexicon</text>
<rect x="190" y="124" width="402.73" height="22" rx="4" fill="#5b927f"/>
<text x="600.7282946527898" y="140" font-family="Arial" font-size="13" fill="#39423f">0.297</text>
<text x="20" y="178" font-family="Arial" font-size="13" fill="#39423f">tfidf_svm</text>
<rect x="190" y="158" width="471.39" height="22" rx="4" fill="#5b927f"/>
<text x="669.3907741189196" y="174" font-family="Arial" font-size="13" fill="#39423f">0.347</text>
<text x="20" y="212" font-family="Arial" font-size="13" fill="#39423f">tfidf_logreg</text>
<rect x="190" y="192" width="506.01" height="22" rx="4" fill="#5b927f"/>
<text x="704.0110935570538" y="208" font-family="Arial" font-size="13" fill="#39423f">0.373</text>
<text x="20" y="246" font-family="Arial" font-size="13" fill="#39423f">trained_distilbert</text>
<rect x="190" y="226" width="635.76" height="22" rx="4" fill="#5b927f"/>
<text x="833.7569667253375" y="242" font-family="Arial" font-size="13" fill="#39423f">0.469</text>
<text x="20" y="280" font-family="Arial" font-size="13" fill="#39423f">roberta_class_balanced_focal</text>
<rect x="190" y="260" width="636.81" height="22" rx="4" fill="#5b927f"/>
<text x="834.8123849925962" y="276" font-family="Arial" font-size="13" fill="#39423f">0.469</text>
<text x="20" y="314" font-family="Arial" font-size="13" fill="#39423f">roberta_weighted_focal</text>
<rect x="190" y="294" width="650.77" height="22" rx="4" fill="#5b927f"/>
<text x="848.7691576358889" y="310" font-family="Arial" font-size="13" fill="#39423f">0.480</text>
<text x="20" y="348" font-family="Arial" font-size="13" fill="#39423f">trained_roberta</text>
<rect x="190" y="328" width="670.00" height="22" rx="4" fill="#5b927f"/>
<text x="868.0" y="344" font-family="Arial" font-size="13" fill="#39423f">0.494</text>
</svg>